# xmcd
#
# Track frame offsets: 
#        187
#        16647
#        35095
#        59977
#        80832
#        97702
#        119407
#        142627
#        160902
#        184477
#
# Disc length: 2761 seconds
#
# Revision: 0
# Processed by: cddbd v1.5.2PL0 Copyright (c) Steve Scherf et al.
# Submitted via: ExactAudioCopy v1.0b3
#
DISCID=820ac70a
DTITLE=Various Artist - Que Huong va Tinh Nguoi
DYEAR=1991
DGENRE=
TTITLE0=Elvis Phuong - Mot lan mien vien xot xa
TTITLE1=Le Hang - Long Me
TTITLE2=Thai Hien - Em di roi
TTITLE3=Elvis Phuong - Vung troi ngay do
TTITLE4=Luu Hong - Dua em ve que huong
TTITLE5=Nhu Mai - Tim vet chan xua
TTITLE6=Elvis Phuong - Ngay tro ve
TTITLE7=Le Thu - Xa que
TTITLE8=Hang Nga - Ao lua vang
TTITLE9=Elvis Phuong - Nguoi tinh va que huong
EXTD=
EXTT0=
EXTT1=
EXTT2=
EXTT3=
EXTT4=
EXTT5=
EXTT6=
EXTT7=
EXTT8=
EXTT9=
PLAYORDER=
